<?xml version="1.0" encoding="UTF-8"?>
<svg xmlns="http://www.w3.org/2000/svg" width="1200" height="700" viewBox="0 0 1200 700">
<rect width="100%" height="100%" fill="white"/>
<text x="600.0" y="35" text-anchor="middle" font-family="Arial" font-size="24" font-weight="bold">Expanded Nodes Comparison</text>
<line x1="110" y1="550.00" x2="1160" y2="550.00" stroke="#dddddd" stroke-width="1"/>
<text x="100" y="555.00" text-anchor="end" font-family="Arial" font-size="12">0</text>
<line x1="110" y1="456.00" x2="1160" y2="456.00" stroke="#dddddd" stroke-width="1"/>
<text x="100" y="461.00" text-anchor="end" font-family="Arial" font-size="12">79.8</text>
<line x1="110" y1="362.00" x2="1160" y2="362.00" stroke="#dddddd" stroke-width="1"/>
<text x="100" y="367.00" text-anchor="end" font-family="Arial" font-size="12">159.6</text>
<line x1="110" y1="268.00" x2="1160" y2="268.00" stroke="#dddddd" stroke-width="1"/>
<text x="100" y="273.00" text-anchor="end" font-family="Arial" font-size="12">239.4</text>
<line x1="110" y1="174.00" x2="1160" y2="174.00" stroke="#dddddd" stroke-width="1"/>
<text x="100" y="179.00" text-anchor="end" font-family="Arial" font-size="12">319.2</text>
<line x1="110" y1="80.00" x2="1160" y2="80.00" stroke="#dddddd" stroke-width="1"/>
<text x="100" y="85.00" text-anchor="end" font-family="Arial" font-size="12">399</text>
<line x1="110" y1="80" x2="110" y2="550" stroke="black" stroke-width="2"/>
<line x1="110" y1="550" x2="1160" y2="550" stroke="black" stroke-width="2"/>
<rect x="121.55" y="421.60" width="18.48" height="128.40" fill="#4C78A8"/>
<rect x="142.03" y="466.37" width="18.48" height="83.63" fill="#F58518"/>
<rect x="162.50" y="421.60" width="18.48" height="128.40" fill="#54A24B"/>
<rect x="182.97" y="512.31" width="18.48" height="37.69" fill="#E45756"/>
<text x="162.50" y="574.00" text-anchor="end" transform="rotate(-35 162.50 574.00)" font-family="Arial" font-size="12">level_01.json</text>
<rect x="226.55" y="263.76" width="18.48" height="286.24" fill="#4C78A8"/>
<rect x="247.03" y="418.07" width="18.48" height="131.93" fill="#F58518"/>
<rect x="267.50" y="263.76" width="18.48" height="286.24" fill="#54A24B"/>
<rect x="287.98" y="471.08" width="18.48" height="78.92" fill="#E45756"/>
<text x="267.50" y="574.00" text-anchor="end" transform="rotate(-35 267.50 574.00)" font-family="Arial" font-size="12">level_02.json</text>
<rect x="331.55" y="425.14" width="18.48" height="124.86" fill="#4C78A8"/>
<rect x="352.03" y="496.99" width="18.48" height="53.01" fill="#F58518"/>
<rect x="372.50" y="425.14" width="18.48" height="124.86" fill="#54A24B"/>
<rect x="392.98" y="519.37" width="18.48" height="30.63" fill="#E45756"/>
<text x="372.50" y="574.00" text-anchor="end" transform="rotate(-35 372.50 574.00)" font-family="Arial" font-size="12">level_03.json</text>
<rect x="436.55" y="319.12" width="18.48" height="230.88" fill="#4C78A8"/>
<rect x="457.03" y="385.09" width="18.48" height="164.91" fill="#F58518"/>
<rect x="477.50" y="319.12" width="18.48" height="230.88" fill="#54A24B"/>
<rect x="497.98" y="379.20" width="18.48" height="170.80" fill="#E45756"/>
<text x="477.50" y="574.00" text-anchor="end" transform="rotate(-35 477.50 574.00)" font-family="Arial" font-size="12">level_04.json</text>
<rect x="541.55" y="80.00" width="18.48" height="470.00" fill="#4C78A8"/>
<rect x="562.02" y="161.28" width="18.48" height="388.72" fill="#F58518"/>
<rect x="582.50" y="80.00" width="18.48" height="470.00" fill="#54A24B"/>
<rect x="602.97" y="267.29" width="18.48" height="282.71" fill="#E45756"/>
<text x="582.50" y="574.00" text-anchor="end" transform="rotate(-35 582.50 574.00)" font-family="Arial" font-size="12">level_05.json</text>
<rect x="646.55" y="493.46" width="18.48" height="56.54" fill="#4C78A8"/>
<rect x="667.02" y="527.62" width="18.48" height="22.38" fill="#F58518"/>
<rect x="687.50" y="481.68" width="18.48" height="68.32" fill="#54A24B"/>
<rect x="707.97" y="481.68" width="18.48" height="68.32" fill="#E45756"/>
<text x="687.50" y="574.00" text-anchor="end" transform="rotate(-35 687.50 574.00)" font-family="Arial" font-size="12">level_06.json</text>
<rect x="751.55" y="254.34" width="18.48" height="295.66" fill="#4C78A8"/>
<rect x="772.02" y="399.22" width="18.48" height="150.78" fill="#F58518"/>
<rect x="792.50" y="264.94" width="18.48" height="285.06" fill="#54A24B"/>
<rect x="812.97" y="426.32" width="18.48" height="123.68" fill="#E45756"/>
<text x="792.50" y="574.00" text-anchor="end" transform="rotate(-35 792.50 574.00)" font-family="Arial" font-size="12">level_07.json</text>
<rect x="856.55" y="494.64" width="18.48" height="55.36" fill="#4C78A8"/>
<rect x="877.02" y="527.62" width="18.48" height="22.38" fill="#F58518"/>
<rect x="897.50" y="479.32" width="18.48" height="70.68" fill="#54A24B"/>
<rect x="917.97" y="479.32" width="18.48" height="70.68" fill="#E45756"/>
<text x="897.50" y="574.00" text-anchor="end" transform="rotate(-35 897.50 574.00)" font-family="Arial" font-size="12">level_08.json</text>
<rect x="961.55" y="468.72" width="18.48" height="81.28" fill="#4C78A8"/>
<rect x="982.02" y="475.79" width="18.48" height="74.21" fill="#F58518"/>
<rect x="1002.50" y="478.15" width="18.48" height="71.85" fill="#54A24B"/>
<rect x="1022.97" y="507.59" width="18.48" height="42.41" fill="#E45756"/>
<text x="1002.50" y="574.00" text-anchor="end" transform="rotate(-35 1002.50 574.00)" font-family="Arial" font-size="12">level_09.json</text>
<rect x="1066.55" y="455.76" width="18.48" height="94.24" fill="#4C78A8"/>
<rect x="1087.02" y="469.90" width="18.48" height="80.10" fill="#F58518"/>
<rect x="1107.50" y="455.76" width="18.48" height="94.24" fill="#54A24B"/>
<rect x="1127.97" y="485.21" width="18.48" height="64.79" fill="#E45756"/>
<text x="1107.50" y="574.00" text-anchor="end" transform="rotate(-35 1107.50 574.00)" font-family="Arial" font-size="12">level_10.json</text>
<text x="28" y="315.00" text-anchor="middle" transform="rotate(-90 28 315.00)" font-family="Arial" font-size="15">Mean Expanded Nodes</text>
<rect x="360.00" y="651" width="18" height="18" fill="#4C78A8"/>
<text x="386.00" y="665" font-family="Arial" font-size="14">BFS</text>
<rect x="480.00" y="651" width="18" height="18" fill="#F58518"/>
<text x="506.00" y="665" font-family="Arial" font-size="14">DFS</text>
<rect x="600.00" y="651" width="18" height="18" fill="#54A24B"/>
<text x="626.00" y="665" font-family="Arial" font-size="14">UCS</text>
<rect x="720.00" y="651" width="18" height="18" fill="#E45756"/>
<text x="746.00" y="665" font-family="Arial" font-size="14">A*</text>
</svg>