<?xml version="1.0" encoding="UTF-8"?>
<svg xmlns="http://www.w3.org/2000/svg" width="1200" height="700" viewBox="0 0 1200 700">
<rect width="100%" height="100%" fill="white"/>
<text x="600.0" y="35" text-anchor="middle" font-family="Arial" font-size="24" font-weight="bold">Peak Memory Comparison</text>
<line x1="110" y1="550.00" x2="1160" y2="550.00" stroke="#dddddd" stroke-width="1"/>
<text x="100" y="555.00" text-anchor="end" font-family="Arial" font-size="12">0</text>
<line x1="110" y1="456.00" x2="1160" y2="456.00" stroke="#dddddd" stroke-width="1"/>
<text x="100" y="461.00" text-anchor="end" font-family="Arial" font-size="12">54</text>
<line x1="110" y1="362.00" x2="1160" y2="362.00" stroke="#dddddd" stroke-width="1"/>
<text x="100" y="367.00" text-anchor="end" font-family="Arial" font-size="12">108</text>
<line x1="110" y1="268.00" x2="1160" y2="268.00" stroke="#dddddd" stroke-width="1"/>
<text x="100" y="273.00" text-anchor="end" font-family="Arial" font-size="12">162</text>
<line x1="110" y1="174.00" x2="1160" y2="174.00" stroke="#dddddd" stroke-width="1"/>
<text x="100" y="179.00" text-anchor="end" font-family="Arial" font-size="12">216</text>
<line x1="110" y1="80.00" x2="1160" y2="80.00" stroke="#dddddd" stroke-width="1"/>
<text x="100" y="85.00" text-anchor="end" font-family="Arial" font-size="12">270</text>
<line x1="110" y1="80" x2="110" y2="550" stroke="black" stroke-width="2"/>
<line x1="110" y1="550" x2="1160" y2="550" stroke="black" stroke-width="2"/>
<rect x="121.55" y="439.27" width="18.48" height="110.73" fill="#4C78A8"/>
<rect x="142.03" y="456.36" width="18.48" height="93.64" fill="#F58518"/>
<rect x="162.50" y="423.52" width="18.48" height="126.48" fill="#54A24B"/>
<rect x="182.97" y="481.65" width="18.48" height="68.35" fill="#E45756"/>
<text x="162.50" y="574.00" text-anchor="end" transform="rotate(-35 162.50 574.00)" font-family="Arial" font-size="12">level_01.json</text>
<rect x="226.55" y="310.55" width="18.48" height="239.45" fill="#4C78A8"/>
<rect x="247.03" y="379.29" width="18.48" height="170.71" fill="#F58518"/>
<rect x="267.50" y="277.94" width="18.48" height="272.06" fill="#54A24B"/>
<rect x="287.98" y="403.03" width="18.48" height="146.97" fill="#E45756"/>
<text x="267.50" y="574.00" text-anchor="end" transform="rotate(-35 267.50 574.00)" font-family="Arial" font-size="12">level_02.json</text>
<rect x="331.55" y="442.10" width="18.48" height="107.90" fill="#4C78A8"/>
<rect x="352.03" y="477.45" width="18.48" height="72.55" fill="#F58518"/>
<rect x="372.50" y="425.13" width="18.48" height="124.87" fill="#54A24B"/>
<rect x="392.98" y="486.31" width="18.48" height="63.69" fill="#E45756"/>
<text x="372.50" y="574.00" text-anchor="end" transform="rotate(-35 372.50 574.00)" font-family="Arial" font-size="12">level_03.json</text>
<rect x="436.55" y="330.01" width="18.48" height="219.99" fill="#4C78A8"/>
<rect x="457.03" y="349.49" width="18.48" height="200.51" fill="#F58518"/>
<rect x="477.50" y="300.73" width="18.48" height="249.27" fill="#54A24B"/>
<rect x="497.98" y="382.20" width="18.48" height="167.80" fill="#E45756"/>
<text x="477.50" y="574.00" text-anchor="end" transform="rotate(-35 477.50 574.00)" font-family="Arial" font-size="12">level_04.json</text>
<rect x="541.55" y="133.32" width="18.48" height="416.68" fill="#4C78A8"/>
<rect x="562.02" y="138.39" width="18.48" height="411.61" fill="#F58518"/>
<rect x="582.50" y="80.00" width="18.48" height="470.00" fill="#54A24B"/>
<rect x="602.97" y="197.71" width="18.48" height="352.29" fill="#E45756"/>
<text x="582.50" y="574.00" text-anchor="end" transform="rotate(-35 582.50 574.00)" font-family="Arial" font-size="12">level_05.json</text>
<rect x="646.55" y="486.52" width="18.48" height="63.48" fill="#4C78A8"/>
<rect x="667.02" y="521.27" width="18.48" height="28.73" fill="#F58518"/>
<rect x="687.50" y="465.64" width="18.48" height="84.36" fill="#54A24B"/>
<rect x="707.97" y="464.11" width="18.48" height="85.89" fill="#E45756"/>
<text x="687.50" y="574.00" text-anchor="end" transform="rotate(-35 687.50 574.00)" font-family="Arial" font-size="12">level_06.json</text>
<rect x="751.55" y="318.47" width="18.48" height="231.53" fill="#4C78A8"/>
<rect x="772.02" y="358.11" width="18.48" height="191.89" fill="#F58518"/>
<rect x="792.50" y="289.71" width="18.48" height="260.29" fill="#54A24B"/>
<rect x="812.97" y="366.03" width="18.48" height="183.97" fill="#E45756"/>
<text x="792.50" y="574.00" text-anchor="end" transform="rotate(-35 792.50 574.00)" font-family="Arial" font-size="12">level_07.json</text>
<rect x="856.55" y="481.48" width="18.48" height="68.52" fill="#4C78A8"/>
<rect x="877.02" y="519.61" width="18.48" height="30.39" fill="#F58518"/>
<rect x="897.50" y="447.05" width="18.48" height="102.95" fill="#54A24B"/>
<rect x="917.97" y="445.43" width="18.48" height="104.57" fill="#E45756"/>
<text x="897.50" y="574.00" text-anchor="end" transform="rotate(-35 897.50 574.00)" font-family="Arial" font-size="12">level_08.json</text>
<rect x="961.55" y="477.93" width="18.48" height="72.07" fill="#4C78A8"/>
<rect x="982.02" y="475.45" width="18.48" height="74.55" fill="#F58518"/>
<rect x="1002.50" y="473.33" width="18.48" height="76.67" fill="#54A24B"/>
<rect x="1022.97" y="489.94" width="18.48" height="60.06" fill="#E45756"/>
<text x="1002.50" y="574.00" text-anchor="end" transform="rotate(-35 1002.50 574.00)" font-family="Arial" font-size="12">level_09.json</text>
<rect x="1066.55" y="463.91" width="18.48" height="86.09" fill="#4C78A8"/>
<rect x="1087.02" y="464.36" width="18.48" height="85.64" fill="#F58518"/>
<rect x="1107.50" y="452.74" width="18.48" height="97.26" fill="#54A24B"/>
<rect x="1127.97" y="476.23" width="18.48" height="73.77" fill="#E45756"/>
<text x="1107.50" y="574.00" text-anchor="end" transform="rotate(-35 1107.50 574.00)" font-family="Arial" font-size="12">level_10.json</text>
<text x="28" y="315.00" text-anchor="middle" transform="rotate(-90 28 315.00)" font-family="Arial" font-size="15">Median Peak Memory (KB)</text>
<rect x="360.00" y="651" width="18" height="18" fill="#4C78A8"/>
<text x="386.00" y="665" font-family="Arial" font-size="14">BFS</text>
<rect x="480.00" y="651" width="18" height="18" fill="#F58518"/>
<text x="506.00" y="665" font-family="Arial" font-size="14">DFS</text>
<rect x="600.00" y="651" width="18" height="18" fill="#54A24B"/>
<text x="626.00" y="665" font-family="Arial" font-size="14">UCS</text>
<rect x="720.00" y="651" width="18" height="18" fill="#E45756"/>
<text x="746.00" y="665" font-family="Arial" font-size="14">A*</text>
</svg>