<?xml version="1.0" encoding="UTF-8"?>
<svg xmlns="http://www.w3.org/2000/svg" width="1200" height="700" viewBox="0 0 1200 700">
<rect width="100%" height="100%" fill="white"/>
<text x="600.0" y="35" text-anchor="middle" font-family="Arial" font-size="24" font-weight="bold">Search Time Comparison</text>
<line x1="110" y1="550.00" x2="1160" y2="550.00" stroke="#dddddd" stroke-width="1"/>
<text x="100" y="555.00" text-anchor="end" font-family="Arial" font-size="12">0</text>
<line x1="110" y1="456.00" x2="1160" y2="456.00" stroke="#dddddd" stroke-width="1"/>
<text x="100" y="461.00" text-anchor="end" font-family="Arial" font-size="12">0.007743</text>
<line x1="110" y1="362.00" x2="1160" y2="362.00" stroke="#dddddd" stroke-width="1"/>
<text x="100" y="367.00" text-anchor="end" font-family="Arial" font-size="12">0.01549</text>
<line x1="110" y1="268.00" x2="1160" y2="268.00" stroke="#dddddd" stroke-width="1"/>
<text x="100" y="273.00" text-anchor="end" font-family="Arial" font-size="12">0.02323</text>
<line x1="110" y1="174.00" x2="1160" y2="174.00" stroke="#dddddd" stroke-width="1"/>
<text x="100" y="179.00" text-anchor="end" font-family="Arial" font-size="12">0.03097</text>
<line x1="110" y1="80.00" x2="1160" y2="80.00" stroke="#dddddd" stroke-width="1"/>
<text x="100" y="85.00" text-anchor="end" font-family="Arial" font-size="12">0.03872</text>
<line x1="110" y1="80" x2="110" y2="550" stroke="black" stroke-width="2"/>
<line x1="110" y1="550" x2="1160" y2="550" stroke="black" stroke-width="2"/>
<rect x="121.55" y="476.30" width="18.48" height="73.70" fill="#4C78A8"/>
<rect x="142.03" y="500.82" width="18.48" height="49.18" fill="#F58518"/>
<rect x="162.50" y="450.89" width="18.48" height="99.11" fill="#54A24B"/>
<rect x="182.97" y="514.58" width="18.48" height="35.42" fill="#E45756"/>
<text x="162.50" y="574.00" text-anchor="end" transform="rotate(-35 162.50 574.00)" font-family="Arial" font-size="12">level_01.json</text>
<rect x="226.55" y="357.73" width="18.48" height="192.27" fill="#4C78A8"/>
<rect x="247.03" y="459.34" width="18.48" height="90.66" fill="#F58518"/>
<rect x="267.50" y="291.66" width="18.48" height="258.34" fill="#54A24B"/>
<rect x="287.98" y="464.43" width="18.48" height="85.57" fill="#E45756"/>
<text x="267.50" y="574.00" text-anchor="end" transform="rotate(-35 267.50 574.00)" font-family="Arial" font-size="12">level_02.json</text>
<rect x="331.55" y="478.02" width="18.48" height="71.98" fill="#4C78A8"/>
<rect x="352.03" y="518.04" width="18.48" height="31.96" fill="#F58518"/>
<rect x="372.50" y="455.43" width="18.48" height="94.57" fill="#54A24B"/>
<rect x="392.98" y="519.74" width="18.48" height="30.26" fill="#E45756"/>
<text x="372.50" y="574.00" text-anchor="end" transform="rotate(-35 372.50 574.00)" font-family="Arial" font-size="12">level_03.json</text>
<rect x="436.55" y="403.31" width="18.48" height="146.69" fill="#4C78A8"/>
<rect x="457.03" y="444.24" width="18.48" height="105.76" fill="#F58518"/>
<rect x="477.50" y="361.91" width="18.48" height="188.09" fill="#54A24B"/>
<rect x="497.98" y="398.62" width="18.48" height="151.38" fill="#E45756"/>
<text x="477.50" y="574.00" text-anchor="end" transform="rotate(-35 477.50 574.00)" font-family="Arial" font-size="12">level_04.json</text>
<rect x="541.55" y="204.08" width="18.48" height="345.92" fill="#4C78A8"/>
<rect x="562.02" y="256.47" width="18.48" height="293.53" fill="#F58518"/>
<rect x="582.50" y="80.00" width="18.48" height="470.00" fill="#54A24B"/>
<rect x="602.97" y="233.59" width="18.48" height="316.41" fill="#E45756"/>
<text x="582.50" y="574.00" text-anchor="end" transform="rotate(-35 582.50 574.00)" font-family="Arial" font-size="12">level_05.json</text>
<rect x="646.55" y="514.92" width="18.48" height="35.08" fill="#4C78A8"/>
<rect x="667.02" y="536.97" width="18.48" height="13.03" fill="#F58518"/>
<rect x="687.50" y="496.57" width="18.48" height="53.43" fill="#54A24B"/>
<rect x="707.97" y="494.14" width="18.48" height="55.86" fill="#E45756"/>
<text x="687.50" y="574.00" text-anchor="end" transform="rotate(-35 687.50 574.00)" font-family="Arial" font-size="12">level_06.json</text>
<rect x="751.55" y="358.89" width="18.48" height="191.11" fill="#4C78A8"/>
<rect x="772.02" y="447.26" width="18.48" height="102.74" fill="#F58518"/>
<rect x="792.50" y="303.11" width="18.48" height="246.89" fill="#54A24B"/>
<rect x="812.97" y="420.60" width="18.48" height="129.40" fill="#E45756"/>
<text x="792.50" y="574.00" text-anchor="end" transform="rotate(-35 792.50 574.00)" font-family="Arial" font-size="12">level_07.json</text>
<rect x="856.55" y="510.49" width="18.48" height="39.51" fill="#4C78A8"/>
<rect x="877.02" y="535.63" width="18.48" height="14.37" fill="#F58518"/>
<rect x="897.50" y="481.77" width="18.48" height="68.23" fill="#54A24B"/>
<rect x="917.97" y="483.04" width="18.48" height="66.96" fill="#E45756"/>
<text x="897.50" y="574.00" text-anchor="end" transform="rotate(-35 897.50 574.00)" font-family="Arial" font-size="12">level_08.json</text>
<rect x="961.55" y="505.03" width="18.48" height="44.97" fill="#4C78A8"/>
<rect x="982.02" y="509.86" width="18.48" height="40.14" fill="#F58518"/>
<rect x="1002.50" y="500.21" width="18.48" height="49.79" fill="#54A24B"/>
<rect x="1022.97" y="515.68" width="18.48" height="34.32" fill="#E45756"/>
<text x="1002.50" y="574.00" text-anchor="end" transform="rotate(-35 1002.50 574.00)" font-family="Arial" font-size="12">level_09.json</text>
<rect x="1066.55" y="499.11" width="18.48" height="50.89" fill="#4C78A8"/>
<rect x="1087.02" y="506.03" width="18.48" height="43.97" fill="#F58518"/>
<rect x="1107.50" y="485.36" width="18.48" height="64.64" fill="#54A24B"/>
<rect x="1127.97" y="499.74" width="18.48" height="50.26" fill="#E45756"/>
<text x="1107.50" y="574.00" text-anchor="end" transform="rotate(-35 1107.50 574.00)" font-family="Arial" font-size="12">level_10.json</text>
<text x="28" y="315.00" text-anchor="middle" transform="rotate(-90 28 315.00)" font-family="Arial" font-size="15">Median Search Time (seconds)</text>
<rect x="360.00" y="651" width="18" height="18" fill="#4C78A8"/>
<text x="386.00" y="665" font-family="Arial" font-size="14">BFS</text>
<rect x="480.00" y="651" width="18" height="18" fill="#F58518"/>
<text x="506.00" y="665" font-family="Arial" font-size="14">DFS</text>
<rect x="600.00" y="651" width="18" height="18" fill="#54A24B"/>
<text x="626.00" y="665" font-family="Arial" font-size="14">UCS</text>
<rect x="720.00" y="651" width="18" height="18" fill="#E45756"/>
<text x="746.00" y="665" font-family="Arial" font-size="14">A*</text>
</svg>